<svg version="1.1" id="Layer_1" xmlns="http://www.w3.org/2000/svg" xmlns:xlink="http://www.w3.org/1999/xlink" x="0px" y="0px"
	 width="100%" viewBox="0 0 430 172" enable-background="new 0 0 430 172" xml:space="preserve">
<path fill="#FEFEFE" opacity="1.000000" stroke="none" 
	d="
M304.000000,173.000000 
	C202.708542,173.000000 101.917076,173.000000 1.062809,173.000000 
	C1.062809,115.732407 1.062809,58.464725 1.062809,1.098522 
	C144.333298,1.098522 287.666656,1.098522 430.973633,1.098522 
	C430.973633,58.416130 430.973633,115.708069 430.973633,173.000000 
	C388.798157,173.000000 346.649078,173.000000 304.000000,173.000000 
M12.836714,63.320045 
	C12.563462,63.553589 12.290210,63.787132 11.955927,64.687607 
	C12.300944,65.145515 12.645962,65.603424 12.997350,66.001030 
	C12.997350,66.001030 12.936977,65.996407 12.718667,66.797920 
	C12.874578,67.486412 13.030489,68.174896 13.186400,68.863388 
	C13.462762,68.825699 13.739124,68.788010 14.015486,68.750320 
	C14.015486,67.832466 14.015486,66.914612 14.466422,65.850037 
	C14.077058,65.525673 13.687695,65.201309 13.232615,64.262871 
	C13.197532,64.060020 13.162448,63.857170 12.836714,63.320045 
M114.694000,149.018768 
	C114.817123,148.674896 114.940239,148.331009 114.992790,147.994431 
	C114.992790,147.994431 114.997246,148.065247 115.552765,148.510788 
	C115.916122,148.218246 116.279480,147.925705 116.642830,147.633148 
	C116.108582,147.480042 115.574333,147.326935 114.788010,146.499817 
	C111.300667,144.682892 109.764236,145.884613 108.500076,151.021591 
	C108.235901,151.327164 107.971733,151.632736 107.707573,151.938309 
	C107.986206,152.078445 108.264839,152.218582 108.543480,152.358719 
	C108.691040,151.900955 108.838600,151.443207 109.494514,151.149445 
	C110.334595,150.763718 111.174683,150.377991 112.659790,150.040344 
	C113.121216,149.704315 113.582634,149.368286 113.993958,149.003204 
	C113.993958,149.003204 113.991669,149.061066 114.694000,149.018768 
M125.086273,140.482941 
	C125.086273,140.482941 125.090385,140.484161 125.920723,140.786148 
	C127.354568,139.525070 128.788422,138.263992 130.870590,136.940781 
	C131.940720,135.687546 133.010849,134.434311 134.595154,132.849487 
	C136.448318,129.620987 138.301483,126.392494 140.818436,123.032478 
	C140.857941,122.351974 140.897430,121.671471 140.932571,120.131935 
	C141.581192,118.575417 142.229813,117.018898 143.451630,115.768127 
	C143.637360,115.179359 143.823105,114.590599 144.633896,113.813049 
	C145.971756,110.152412 147.273483,106.477943 148.666824,102.838554 
	C149.161942,101.545303 149.879715,100.337288 149.955643,98.299698 
	C150.476227,92.253944 152.981644,86.178719 149.816162,80.195808 
	C148.918259,86.540932 147.731369,92.910362 150.180161,99.783363 
	C148.762253,101.481041 146.924438,102.977669 145.998718,104.911018 
	C141.864105,113.546059 137.435623,121.966431 130.898193,129.080582 
	C127.553833,132.719971 124.143456,136.298737 120.087959,139.703888 
	C119.372047,140.470337 118.656143,141.236786 117.302322,142.128006 
	C117.431297,143.176315 117.560280,144.224609 117.689255,145.272919 
	C119.104309,144.863037 120.519363,144.453156 122.578148,144.036575 
	C123.365662,143.354050 124.153168,142.671539 125.282234,141.234436 
	C125.198479,140.971359 125.114723,140.708267 125.086273,140.482941 
M11.790628,72.693466 
	C11.751989,71.854034 11.713350,71.014603 11.674711,70.175171 
	C11.135966,70.312233 10.597222,70.449295 10.058477,70.586349 
	C10.407201,71.372688 10.755925,72.159019 10.422706,73.028008 
	C10.260438,74.536140 10.098171,76.044273 9.935904,77.552406 
	C10.317958,77.554070 10.700013,77.555733 11.082067,77.557396 
	C11.082067,76.015556 11.082067,74.473709 11.790628,72.693466 
M99.314537,151.970810 
	C98.783699,152.113541 98.252853,152.256271 97.722015,152.399002 
	C97.812965,152.675278 97.903908,152.951569 97.994858,153.227859 
	C99.082550,152.817398 100.170242,152.406937 101.936844,152.076645 
	C103.198631,152.459091 104.460426,152.841553 105.908607,153.280518 
	C105.096848,149.386917 105.096848,149.386917 99.314537,151.970810 
M102.958801,17.507133 
	C102.659111,17.242857 102.359428,16.978582 102.059738,16.714308 
	C101.922920,16.992111 101.786102,17.269915 101.649284,17.547718 
	C102.105728,17.692654 102.562180,17.837589 103.041718,18.744257 
	C103.833214,19.581543 104.482117,20.668394 105.439476,21.215382 
	C111.407661,24.625324 117.626556,27.632084 123.394821,31.343679 
	C127.192238,33.787128 130.373276,37.188507 133.996460,40.788750 
	C134.769089,41.081413 135.541718,41.374081 136.314346,41.666744 
	C136.410492,41.232922 136.506653,40.799095 136.602798,40.365273 
	C135.766190,40.203175 134.929596,40.041077 133.950928,39.193920 
	C133.013519,38.076733 131.919006,37.055973 131.164444,35.826565 
	C126.565636,28.333700 117.799637,22.319904 109.302223,20.833899 
	C108.576851,20.707047 108.000137,19.885418 107.273392,19.577940 
	C105.873672,18.985731 104.415993,18.530531 102.958801,17.507133 
M355.143494,106.827850 
	C356.758728,113.995651 361.278870,118.405106 368.494720,118.954567 
	C375.775696,119.509003 383.152252,119.394646 390.451355,118.966537 
	C398.318451,118.505104 403.004974,112.995598 403.006439,105.169327 
	C403.008850,92.514496 403.007446,79.859657 403.007019,67.204826 
	C403.006744,58.047459 398.567810,52.819141 389.475616,52.208042 
	C382.847839,51.762577 376.144348,51.770256 369.514343,52.195446 
	C360.442352,52.777252 355.031219,58.906178 355.006134,67.991074 
	C354.971161,80.645332 355.027893,93.299843 355.143494,106.827850 
M174.400848,92.499863 
	C174.400848,101.094536 174.400848,109.689201 174.400848,118.191376 
	C177.188904,118.191376 179.247589,118.191376 181.659271,118.191376 
	C181.659271,108.022331 181.659271,98.255539 181.659271,88.036598 
	C185.636108,88.036598 189.279709,88.219711 192.894913,87.978157 
	C195.742096,87.787910 197.354584,88.714394 198.707306,91.312447 
	C202.696976,98.975105 207.253799,106.348938 211.084686,114.085358 
	C213.314423,118.588272 216.247864,119.529953 221.222870,117.874931 
	C220.494583,116.103676 220.008835,114.404236 219.150375,112.920456 
	C214.406693,104.721550 209.747177,96.464165 204.675812,88.469788 
	C202.847015,85.586891 203.043533,83.622345 204.773087,80.889763 
	C209.394714,73.587967 213.735229,66.106071 218.084595,58.635860 
	C218.992340,57.076790 219.457565,55.260090 220.119171,53.581272 
	C214.591843,51.778599 211.892929,53.616348 209.740219,58.156391 
	C206.329575,65.349419 202.220856,72.216354 198.274582,79.145554 
	C197.628006,80.280891 196.349670,81.754929 195.278473,81.827980 
	C190.843704,82.130394 186.376358,81.954857 181.447845,81.954857 
	C181.447845,72.044250 181.447845,62.637703 181.447845,53.279469 
	C178.876419,53.279469 176.802643,53.279469 174.401001,53.279469 
	C174.401001,66.227982 174.401001,78.863914 174.400848,92.499863 
M240.083832,105.707169 
	C240.083832,88.159538 240.083832,70.611916 240.083832,53.175095 
	C237.315857,53.175095 235.365356,53.175095 233.032593,53.175095 
	C233.032593,70.962936 232.802460,88.562996 233.144684,106.151909 
	C233.283569,113.290016 239.668243,118.776215 247.248474,119.112640 
	C253.227386,119.378006 259.236267,119.381691 265.215454,119.123108 
	C272.795563,118.795288 278.332703,113.745102 279.373840,106.171387 
	C279.914001,102.241791 279.833160,98.212532 279.847992,94.227615 
	C279.898712,80.622330 279.867432,67.016747 279.867432,53.290680 
	C277.187225,53.290680 274.976776,53.290680 272.432739,53.290680 
	C272.432739,55.241737 272.432770,56.884609 272.432739,58.527481 
	C272.432678,73.338699 272.475189,88.150101 272.413300,102.961060 
	C272.385193,109.694412 269.010895,113.012344 262.281738,113.124252 
	C258.455170,113.187889 254.621429,113.009186 250.800369,113.167671 
	C245.697891,113.379318 242.137634,111.376884 240.083832,105.707169 
M334.546539,71.094627 
	C337.880188,65.367897 341.213867,59.641159 344.658142,53.724442 
	C338.748962,51.918930 335.907440,53.449238 333.727509,58.039593 
	C330.313416,65.228798 326.199432,72.092339 322.217102,78.998756 
	C321.507812,80.228821 320.057159,81.751282 318.848816,81.844734 
	C314.435638,82.186005 309.980072,81.979698 305.073547,81.979698 
	C305.073547,72.019997 305.073547,62.622944 305.073547,53.326759 
	C302.520966,53.326759 300.463501,53.326759 298.335876,53.326759 
	C298.335876,75.093124 298.335876,96.514771 298.335876,118.247505 
	C300.594666,118.247505 302.660248,118.247505 305.242859,118.247505 
	C305.242859,108.154655 305.242859,98.253922 305.242859,88.017845 
	C309.550232,88.017845 313.367645,88.219170 317.151703,87.950546 
	C319.899719,87.755470 321.273926,88.781441 322.524841,91.157677 
	C326.626801,98.949539 331.256592,106.472015 335.154663,114.359390 
	C337.350281,118.801903 340.234375,119.270554 344.911163,117.834045 
	C344.184418,115.943558 343.751495,114.215370 342.903870,112.722672 
	C340.114044,107.809555 337.724243,102.529335 334.177399,98.215019 
	C326.721222,89.145462 326.074005,80.557068 334.546539,71.094627 
M66.455025,73.751122 
	C73.025993,79.633331 79.659859,85.447647 86.128235,91.440582 
	C87.982483,93.158554 89.470169,93.779007 91.740570,92.252098 
	C93.793320,90.871574 96.101166,89.870361 98.976181,88.340149 
	C94.994324,87.227486 91.967781,86.381767 88.941246,85.536049 
	C88.868431,84.967613 88.795616,84.399178 88.722801,83.830742 
	C98.590775,85.354919 106.955841,83.720955 111.766891,73.695595 
	C104.194366,74.324440 96.860580,74.933456 89.526794,75.542473 
	C89.511246,75.082527 89.495689,74.622589 89.480141,74.162643 
	C97.542610,72.181442 105.620255,70.258514 113.653847,68.166435 
	C115.136780,67.780258 116.951599,67.054810 117.736900,65.893410 
	C120.564514,61.711533 123.017181,57.276131 126.183029,51.980488 
	C105.616890,58.901142 86.140366,65.451172 66.677696,72.042160 
	C66.385872,72.140984 66.266052,72.747742 66.455025,73.751122 
M68.028503,79.478119 
	C64.484833,75.564835 61.158466,71.416817 57.299381,67.844246 
	C55.553814,66.228264 52.681992,64.803970 50.439186,64.962540 
	C45.714581,65.296577 41.067848,66.732086 35.407040,67.922050 
	C43.979649,69.095123 48.001202,73.254684 46.840466,81.350410 
	C45.595085,90.036438 52.514618,94.383095 58.035774,96.465057 
	C66.501060,99.657204 76.191948,100.621201 84.956352,94.534363 
	C79.455276,89.644455 74.004890,84.799606 68.028503,79.478119 
M83.655968,113.969254 
	C84.631126,111.521248 85.606285,109.073250 86.561317,106.675766 
	C91.637955,113.066521 97.370605,106.434708 103.260628,106.003433 
	C94.990135,101.826691 87.387764,94.075668 77.628494,101.302971 
	C77.628494,107.421768 77.628494,113.386711 77.628494,120.247963 
	C79.951263,117.813438 81.540924,116.147301 83.655968,113.969254 
M144.961533,59.375835 
	C146.376007,65.460350 147.790482,71.544868 149.386551,78.410484 
	C152.115906,71.646866 146.535965,55.103909 141.902084,51.202961 
	C142.490982,52.694313 143.664368,55.665924 144.961533,59.375835 
M136.798096,43.371864 
	C136.742767,43.750149 136.687424,44.128433 136.632095,44.506718 
	C136.905075,44.505829 137.178040,44.504940 137.451019,44.504055 
	C137.412003,44.122265 137.372986,43.740479 136.798096,43.371864 
z"/>
<path fill="#192173" opacity="1.000000" stroke="none" 
	d="
M355.094452,106.391052 
	C355.027893,93.299843 354.971161,80.645332 355.006134,67.991074 
	C355.031219,58.906178 360.442352,52.777252 369.514343,52.195446 
	C376.144348,51.770256 382.847839,51.762577 389.475616,52.208042 
	C398.567810,52.819141 403.006744,58.047459 403.007019,67.204826 
	C403.007446,79.859657 403.008850,92.514496 403.006439,105.169327 
	C403.004974,112.995598 398.318451,118.505104 390.451355,118.966537 
	C383.152252,119.394646 375.775696,119.509003 368.494720,118.954567 
	C361.278870,118.405106 356.758728,113.995651 355.094452,106.391052 
M362.007599,100.316010 
	C362.016907,110.613823 364.587158,113.151726 375.011261,113.153961 
	C379.002411,113.154823 382.995026,113.222496 386.984375,113.137489 
	C393.307251,113.002785 396.886292,109.566193 396.955109,103.204765 
	C397.081055,91.565285 397.069000,79.922714 396.958618,68.282913 
	C396.899353,62.036350 393.332520,58.357761 387.106384,58.078732 
	C382.293182,57.863018 377.460876,57.917263 372.641418,58.033588 
	C365.454926,58.207047 362.036957,61.753704 362.015350,68.928986 
	C361.984833,79.073059 362.007599,89.217300 362.007599,100.316010 
z"/>
<path fill="#272E7B" opacity="1.000000" stroke="none" 
	d="
M174.400925,91.999855 
	C174.401001,78.863914 174.401001,66.227982 174.401001,53.279469 
	C176.802643,53.279469 178.876419,53.279469 181.447845,53.279469 
	C181.447845,62.637703 181.447845,72.044250 181.447845,81.954857 
	C186.376358,81.954857 190.843704,82.130394 195.278473,81.827980 
	C196.349670,81.754929 197.628006,80.280891 198.274582,79.145554 
	C202.220856,72.216354 206.329575,65.349419 209.740219,58.156391 
	C211.892929,53.616348 214.591843,51.778599 220.119171,53.581272 
	C219.457565,55.260090 218.992340,57.076790 218.084595,58.635860 
	C213.735229,66.106071 209.394714,73.587967 204.773087,80.889763 
	C203.043533,83.622345 202.847015,85.586891 204.675812,88.469788 
	C209.747177,96.464165 214.406693,104.721550 219.150375,112.920456 
	C220.008835,114.404236 220.494583,116.103676 221.222870,117.874931 
	C216.247864,119.529953 213.314423,118.588272 211.084686,114.085358 
	C207.253799,106.348938 202.696976,98.975105 198.707306,91.312447 
	C197.354584,88.714394 195.742096,87.787910 192.894913,87.978157 
	C189.279709,88.219711 185.636108,88.036598 181.659271,88.036598 
	C181.659271,98.255539 181.659271,108.022331 181.659271,118.191376 
	C179.247589,118.191376 177.188904,118.191376 174.400848,118.191376 
	C174.400848,109.689201 174.400848,101.094536 174.400925,91.999855 
z"/>
<path fill="#202777" opacity="1.000000" stroke="none" 
	d="
M240.193787,106.118744 
	C242.137634,111.376884 245.697891,113.379318 250.800369,113.167671 
	C254.621429,113.009186 258.455170,113.187889 262.281738,113.124252 
	C269.010895,113.012344 272.385193,109.694412 272.413300,102.961060 
	C272.475189,88.150101 272.432678,73.338699 272.432739,58.527481 
	C272.432770,56.884609 272.432739,55.241737 272.432739,53.290680 
	C274.976776,53.290680 277.187225,53.290680 279.867432,53.290680 
	C279.867432,67.016747 279.898712,80.622330 279.847992,94.227615 
	C279.833160,98.212532 279.914001,102.241791 279.373840,106.171387 
	C278.332703,113.745102 272.795563,118.795288 265.215454,119.123108 
	C259.236267,119.381691 253.227386,119.378006 247.248474,119.112640 
	C239.668243,118.776215 233.283569,113.290016 233.144684,106.151909 
	C232.802460,88.562996 233.032593,70.962936 233.032593,53.175095 
	C235.365356,53.175095 237.315857,53.175095 240.083832,53.175095 
	C240.083832,70.611916 240.083832,88.159538 240.193787,106.118744 
z"/>
<path fill="#1E2676" opacity="1.000000" stroke="none" 
	d="
M334.342590,71.399582 
	C326.074005,80.557068 326.721222,89.145462 334.177399,98.215019 
	C337.724243,102.529335 340.114044,107.809555 342.903870,112.722672 
	C343.751495,114.215370 344.184418,115.943558 344.911163,117.834045 
	C340.234375,119.270554 337.350281,118.801903 335.154663,114.359390 
	C331.256592,106.472015 326.626801,98.949539 322.524841,91.157677 
	C321.273926,88.781441 319.899719,87.755470 317.151703,87.950546 
	C313.367645,88.219170 309.550232,88.017845 305.242859,88.017845 
	C305.242859,98.253922 305.242859,108.154655 305.242859,118.247505 
	C302.660248,118.247505 300.594666,118.247505 298.335876,118.247505 
	C298.335876,96.514771 298.335876,75.093124 298.335876,53.326759 
	C300.463501,53.326759 302.520966,53.326759 305.073547,53.326759 
	C305.073547,62.622944 305.073547,72.019997 305.073547,81.979698 
	C309.980072,81.979698 314.435638,82.186005 318.848816,81.844734 
	C320.057159,81.751282 321.507812,80.228821 322.217102,78.998756 
	C326.199432,72.092339 330.313416,65.228798 333.727509,58.039593 
	C335.907440,53.449238 338.748962,51.918930 344.658142,53.724442 
	C341.213867,59.641159 337.880188,65.367897 334.342590,71.399582 
z"/>
<path fill="#2A2E76" opacity="1.000000" stroke="none" 
	d="
M66.260490,73.434296 
	C66.266052,72.747742 66.385872,72.140984 66.677696,72.042160 
	C86.140366,65.451172 105.616890,58.901142 126.183029,51.980488 
	C123.017181,57.276131 120.564514,61.711533 117.736900,65.893410 
	C116.951599,67.054810 115.136780,67.780258 113.653847,68.166435 
	C105.620255,70.258514 97.542610,72.181442 89.480141,74.162643 
	C89.495689,74.622589 89.511246,75.082527 89.526794,75.542473 
	C96.860580,74.933456 104.194366,74.324440 111.766891,73.695595 
	C106.955841,83.720955 98.590775,85.354919 88.722801,83.830742 
	C88.795616,84.399178 88.868431,84.967613 88.941246,85.536049 
	C91.967781,86.381767 94.994324,87.227486 98.976181,88.340149 
	C96.101166,89.870361 93.793320,90.871574 91.740570,92.252098 
	C89.470169,93.779007 87.982483,93.158554 86.128235,91.440582 
	C79.659859,85.447647 73.025993,79.633331 66.260490,73.434296 
z"/>
<path fill="#292D75" opacity="1.000000" stroke="none" 
	d="
M68.291504,79.716438 
	C74.004890,84.799606 79.455276,89.644455 84.956352,94.534363 
	C76.191948,100.621201 66.501060,99.657204 58.035774,96.465057 
	C52.514618,94.383095 45.595085,90.036438 46.840466,81.350410 
	C48.001202,73.254684 43.979649,69.095123 35.407040,67.922050 
	C41.067848,66.732086 45.714581,65.296577 50.439186,64.962540 
	C52.681992,64.803970 55.553814,66.228264 57.299381,67.844246 
	C61.158466,71.416817 64.484833,75.564835 68.291504,79.716438 
z"/>
<path fill="#30347A" opacity="1.000000" stroke="none" 
	d="
M83.393280,114.225204 
	C81.540924,116.147301 79.951263,117.813438 77.628494,120.247963 
	C77.628494,113.386711 77.628494,107.421768 77.628494,101.302971 
	C87.387764,94.075668 94.990135,101.826691 103.260628,106.003433 
	C97.370605,106.434708 91.637955,113.066521 86.561317,106.675766 
	C85.606285,109.073250 84.631126,111.521248 83.393280,114.225204 
z"/>
<path fill="#4B4E8B" opacity="1.000000" stroke="none" 
	d="
M140.154648,123.163994 
	C138.301483,126.392494 136.448318,129.620987 133.985596,132.896698 
	C131.902939,133.771347 130.429810,134.598770 128.636444,135.557983 
	C127.863510,136.127502 127.410851,136.565216 126.983139,137.005096 
	C127.008087,137.007248 127.002304,136.957520 126.631836,137.061890 
	C126.169617,137.794785 126.077858,138.423309 126.007225,139.040070 
	C126.028351,139.028305 126.046654,138.983551 125.781662,138.698578 
	C124.660950,138.937241 123.805222,139.460861 122.585587,139.966125 
	C121.735428,139.933472 121.249168,139.919189 120.762909,139.904907 
	C124.143456,136.298737 127.553833,132.719971 130.898193,129.080582 
	C137.435623,121.966431 141.864105,113.546059 145.998718,104.911018 
	C146.924438,102.977669 148.762253,101.481041 150.340714,99.418457 
	C150.501266,99.053543 150.495834,99.090363 150.495834,99.090363 
	C149.879715,100.337288 149.161942,101.545303 148.666824,102.838554 
	C147.273483,106.477943 145.971756,110.152412 144.102631,114.016068 
	C143.340393,114.633514 143.109406,115.047951 142.878418,115.462379 
	C142.229813,117.018898 141.581192,118.575417 140.968597,120.565559 
	C141.004639,120.999184 141.024887,120.933800 140.746124,120.972244 
	C140.320633,121.327850 140.173889,121.645012 140.016495,122.267136 
	C140.055450,122.769402 140.105042,122.966698 140.154648,123.163994 
z"/>
<path fill="#D6D7E5" opacity="1.000000" stroke="none" 
	d="
M133.830307,40.160934 
	C130.373276,37.188507 127.192238,33.787128 123.394821,31.343679 
	C117.626556,27.632084 111.407661,24.625324 105.439476,21.215382 
	C104.482117,20.668394 103.833214,19.581543 103.020882,18.372169 
	C103.000046,18.000080 102.982346,18.018513 102.982346,18.018513 
	C104.415993,18.530531 105.873672,18.985731 107.273392,19.577940 
	C108.000137,19.885418 108.576851,20.707047 109.302223,20.833899 
	C117.799637,22.319904 126.565636,28.333700 131.164444,35.826565 
	C131.919006,37.055973 133.013519,38.076733 133.959167,39.609634 
	C133.967422,40.025349 133.830307,40.160938 133.830307,40.160934 
z"/>
<path fill="#4D518D" opacity="1.000000" stroke="none" 
	d="
M144.899658,59.006683 
	C143.664368,55.665924 142.490982,52.694313 141.902084,51.202961 
	C146.535965,55.103909 152.115906,71.646866 149.386551,78.410484 
	C147.790482,71.544868 146.376007,65.460350 144.899658,59.006683 
z"/>
<path fill="#555892" opacity="1.000000" stroke="none" 
	d="
M150.225739,98.695030 
	C150.495834,99.090363 150.501266,99.053543 150.503448,99.080940 
	C147.731369,92.910362 148.918259,86.540932 149.816162,80.195808 
	C152.981644,86.178719 150.476227,92.253944 150.225739,98.695030 
z"/>
<path fill="#D9D9E6" opacity="1.000000" stroke="none" 
	d="
M112.014771,149.992279 
	C111.174683,150.377991 110.334595,150.763718 109.247444,151.074875 
	C109.000374,151.000305 109.015266,151.014969 109.015266,151.014969 
	C109.764236,145.884613 111.300667,144.682892 114.907455,147.059875 
	C115.026909,147.619919 114.997246,148.065247 114.997246,148.065247 
	C114.997246,148.065247 114.992790,147.994431 114.731201,148.052948 
	C114.310295,148.428009 114.150986,148.744537 113.991669,149.061066 
	C113.991669,149.061066 113.993958,149.003204 113.708954,148.943420 
	C112.954224,149.253189 112.484497,149.622742 112.014771,149.992279 
z"/>
<path fill="#C2C4D8" opacity="1.000000" stroke="none" 
	d="
M121.934418,144.043274 
	C120.519363,144.453156 119.104309,144.863037 117.689255,145.272919 
	C117.560280,144.224609 117.431297,143.176315 118.026680,142.177521 
	C119.812164,142.832458 120.873291,143.437866 121.934418,144.043274 
z"/>
<path fill="#585B94" opacity="1.000000" stroke="none" 
	d="
M122.256287,144.039917 
	C120.873291,143.437866 119.812164,142.832458 118.345642,142.115143 
	C118.656143,141.236786 119.372047,140.470337 120.425438,139.804398 
	C121.249168,139.919189 121.735428,139.933472 122.629730,140.250916 
	C123.363892,140.730026 123.690010,140.905960 124.110382,141.286530 
	C124.394424,141.739212 124.639778,141.905167 124.940681,141.989014 
	C124.153168,142.671539 123.365662,143.354050 122.256287,144.039917 
z"/>
<path fill="#C2C4D8" opacity="1.000000" stroke="none" 
	d="
M128.956696,135.426193 
	C130.429810,134.598770 131.902939,133.771347 133.728516,133.062500 
	C133.010849,134.434311 131.940720,135.687546 130.245224,136.793091 
	C129.386353,136.644867 129.152863,136.644348 128.906158,136.338715 
	C128.914200,135.831146 128.935440,135.628662 128.956696,135.426193 
z"/>
<path fill="#D6D7E5" opacity="1.000000" stroke="none" 
	d="
M99.941429,151.908432 
	C105.096848,149.386917 105.096848,149.386917 105.908607,153.280518 
	C104.460426,152.841553 103.198631,152.459091 101.265480,152.036850 
	C100.376549,151.967514 100.158989,151.937973 99.941429,151.908432 
z"/>
<path fill="#4F528E" opacity="1.000000" stroke="none" 
	d="
M128.919373,136.643814 
	C129.152863,136.644348 129.386353,136.644867 129.921051,136.824158 
	C128.788422,138.263992 127.354568,139.525070 125.832016,140.315689 
	C125.844421,139.558014 125.945534,139.270782 126.046654,138.983551 
	C126.046654,138.983551 126.028351,139.028305 126.329559,138.859589 
	C126.754608,138.113083 126.878456,137.535294 127.002304,136.957520 
	C127.002304,136.957520 127.008087,137.007248 127.285492,137.285248 
	C128.015060,137.256760 128.467209,136.950287 128.919373,136.643814 
z"/>
<path fill="#585B94" opacity="1.000000" stroke="none" 
	d="
M11.104650,72.945358 
	C10.755925,72.159019 10.407201,71.372688 10.058477,70.586349 
	C10.597222,70.449295 11.135966,70.312233 11.674711,70.175171 
	C11.713350,71.014603 11.751989,71.854034 11.410495,72.853592 
	C11.030361,73.013718 11.104650,72.945358 11.104650,72.945358 
z"/>
<path fill="#D9D9E6" opacity="1.000000" stroke="none" 
	d="
M11.056214,72.972794 
	C11.082067,74.473709 11.082067,76.015556 11.082067,77.557396 
	C10.700013,77.555733 10.317958,77.554070 9.935904,77.552406 
	C10.098171,76.044273 10.260438,74.536140 10.763678,72.986679 
	C11.104650,72.945358 11.030361,73.013718 11.056214,72.972794 
z"/>
<path fill="#D6D7E5" opacity="1.000000" stroke="none" 
	d="
M134.030212,39.952164 
	C134.929596,40.041077 135.766190,40.203175 136.602798,40.365273 
	C136.506653,40.799095 136.410492,41.232922 136.314346,41.666748 
	C135.541718,41.374081 134.769089,41.081413 133.913391,40.474846 
	C133.830307,40.160938 133.967422,40.025349 134.030212,39.952164 
z"/>
<path fill="#D6D7E5" opacity="1.000000" stroke="none" 
	d="
M137.066025,43.365276 
	C137.372986,43.740479 137.412003,44.122265 137.451019,44.504055 
	C137.178040,44.504940 136.905075,44.505829 136.632095,44.506718 
	C136.687424,44.128433 136.742767,43.750149 137.066025,43.365276 
z"/>
<path fill="#9FA1C1" opacity="1.000000" stroke="none" 
	d="
M99.627983,151.939621 
	C100.158989,151.937973 100.376549,151.967514 100.926025,151.996765 
	C100.170242,152.406937 99.082550,152.817398 97.994858,153.227859 
	C97.903908,152.951569 97.812965,152.675278 97.722015,152.399002 
	C98.252853,152.256271 98.783699,152.113541 99.627983,151.939621 
z"/>
<path fill="#E3E4ED" opacity="1.000000" stroke="none" 
	d="
M125.781662,138.698578 
	C125.945534,139.270782 125.844421,139.558014 125.416855,140.164703 
	C125.090385,140.484161 125.086273,140.482941 124.819702,140.646790 
	C124.374130,140.901062 124.195129,140.991486 124.016136,141.081894 
	C123.690010,140.905960 123.363892,140.730026 122.993637,140.269287 
	C123.805222,139.460861 124.660950,138.937241 125.781662,138.698578 
z"/>
<path fill="#D6D7E5" opacity="1.000000" stroke="none" 
	d="
M103.009338,17.991302 
	C102.562180,17.837589 102.105728,17.692654 101.649284,17.547718 
	C101.786102,17.269915 101.922920,16.992111 102.059738,16.714308 
	C102.359428,16.978582 102.659111,17.242857 102.970573,17.762823 
	C102.982346,18.018513 103.000046,18.000080 103.009338,17.991302 
z"/>
<path fill="#D9D9E6" opacity="1.000000" stroke="none" 
	d="
M108.993271,150.992874 
	C108.838600,151.443207 108.691040,151.900955 108.543472,152.358719 
	C108.264839,152.218582 107.986206,152.078445 107.707565,151.938293 
	C107.971733,151.632736 108.235901,151.327164 108.757675,151.018280 
	C109.015266,151.014969 109.000374,151.000305 108.993271,150.992874 
z"/>
<path fill="#8D8FB6" opacity="1.000000" stroke="none" 
	d="
M140.486542,123.098236 
	C140.105042,122.966698 140.055450,122.769402 140.280029,122.225204 
	C140.711090,121.563469 140.867996,121.248634 141.024887,120.933800 
	C141.024887,120.933800 141.004639,120.999184 140.970779,120.995071 
	C140.897430,121.671471 140.857941,122.351974 140.486542,123.098236 
z"/>
<path fill="#7073A3" opacity="1.000000" stroke="none" 
	d="
M14.015486,65.996758 
	C14.015486,66.914612 14.015486,67.832466 14.015486,68.750320 
	C13.739124,68.788010 13.462762,68.825699 13.186400,68.863388 
	C13.030489,68.174896 12.874578,67.486412 13.097383,66.449028 
	C13.655896,66.065674 13.835690,66.031219 14.015486,65.996758 
z"/>
<path fill="#4F528E" opacity="1.000000" stroke="none" 
	d="
M143.165039,115.615250 
	C143.109406,115.047951 143.340393,114.633514 143.790100,114.110458 
	C143.823105,114.590599 143.637360,115.179359 143.165039,115.615250 
z"/>
<path fill="#585B94" opacity="1.000000" stroke="none" 
	d="
M115.275009,148.288025 
	C114.997246,148.065247 115.026909,147.619919 115.033493,147.396881 
	C115.574333,147.326935 116.108582,147.480042 116.642838,147.633148 
	C116.279480,147.925705 115.916122,148.218246 115.275009,148.288025 
z"/>
<path fill="#7E80AC" opacity="1.000000" stroke="none" 
	d="
M112.337280,150.016327 
	C112.484497,149.622742 112.954224,149.253189 113.733994,148.957947 
	C113.582634,149.368286 113.121216,149.704315 112.337280,150.016327 
z"/>
<path fill="#C2C4D8" opacity="1.000000" stroke="none" 
	d="
M14.240953,65.923401 
	C13.835690,66.031219 13.655896,66.065674 13.206539,66.048271 
	C12.936977,65.996407 12.997350,66.001030 13.015341,65.720642 
	C13.121666,65.252487 13.209999,65.064720 13.298332,64.876945 
	C13.687695,65.201309 14.077058,65.525673 14.240953,65.923401 
z"/>
<path fill="#7073A3" opacity="1.000000" stroke="none" 
	d="
M13.265474,64.569908 
	C13.209999,65.064720 13.121666,65.252487 13.012156,65.750793 
	C12.645962,65.603424 12.300944,65.145515 12.260667,64.252335 
	C12.752726,63.762810 12.940044,63.708565 13.127363,63.654320 
	C13.162448,63.857170 13.197532,64.060020 13.265474,64.569908 
z"/>
<path fill="#4F528E" opacity="1.000000" stroke="none" 
	d="
M124.110382,141.286530 
	C124.195129,140.991486 124.374130,140.901062 124.792046,140.627899 
	C125.114723,140.708267 125.198479,140.971359 125.111458,141.611725 
	C124.639778,141.905167 124.394424,141.739212 124.110382,141.286530 
z"/>
<path fill="#585B94" opacity="1.000000" stroke="none" 
	d="
M114.342834,149.039917 
	C114.150986,148.744537 114.310295,148.428009 114.766487,148.049316 
	C114.940239,148.331009 114.817123,148.674896 114.342834,149.039917 
z"/>
<path fill="#C2C4D8" opacity="1.000000" stroke="none" 
	d="
M12.982038,63.487183 
	C12.940044,63.708565 12.752726,63.762810 12.291182,63.918865 
	C12.290210,63.787132 12.563462,63.553589 12.982038,63.487183 
z"/>
<path fill="#FEFEFF" opacity="1.000000" stroke="none" 
	d="
M362.007599,99.838737 
	C362.007599,89.217300 361.984833,79.073059 362.015350,68.928986 
	C362.036957,61.753704 365.454926,58.207047 372.641418,58.033588 
	C377.460876,57.917263 382.293182,57.863018 387.106384,58.078732 
	C393.332520,58.357761 396.899353,62.036350 396.958618,68.282913 
	C397.069000,79.922714 397.081055,91.565285 396.955109,103.204765 
	C396.886292,109.566193 393.307251,113.002785 386.984375,113.137489 
	C382.995026,113.222496 379.002411,113.154823 375.011261,113.153961 
	C364.587158,113.151726 362.016907,110.613823 362.007599,99.838737 
z"/>
<path fill="#E3E4ED" opacity="1.000000" stroke="none" 
	d="
M126.631836,137.061890 
	C126.878456,137.535294 126.754608,138.113083 126.308434,138.871338 
	C126.077858,138.423309 126.169617,137.794785 126.631836,137.061890 
z"/>
<path fill="#E3E4ED" opacity="1.000000" stroke="none" 
	d="
M128.906158,136.338715 
	C128.467209,136.950287 128.015060,137.256760 127.260544,137.283081 
	C127.410851,136.565216 127.863510,136.127502 128.636444,135.557983 
	C128.935440,135.628662 128.914200,135.831146 128.906158,136.338715 
z"/>
<path fill="#FEFEFE" opacity="1.000000" stroke="none" 
	d="
M140.746124,120.972244 
	C140.867996,121.248634 140.711090,121.563469 140.290680,121.920242 
	C140.173889,121.645012 140.320633,121.327850 140.746124,120.972244 
z"/>
</svg>