<?xml version="1.0" encoding="UTF-8" standalone="no" ?>
<!DOCTYPE svg PUBLIC "-//W3C//DTD SVG 1.1//EN" "http://www.w3.org/Graphics/SVG/1.1/DTD/svg11.dtd">
<svg xmlns="http://www.w3.org/2000/svg" xmlns:xlink="http://www.w3.org/1999/xlink" version="1.1" width="1080" height="1080" viewBox="0 0 1080 1080" xml:space="preserve">
<desc>Created with Fabric.js 5.2.4</desc>
<defs>
</defs>
<g transform="matrix(1 0 0 1 540 540)" id="73d1228b-4f9b-4ec8-9e53-489f34ccb9a9"  >
<rect style="stroke: none; stroke-width: 1; stroke-dasharray: none; stroke-linecap: butt; stroke-dashoffset: 0; stroke-linejoin: miter; stroke-miterlimit: 4; fill: rgb(255,255,255); fill-rule: nonzero; opacity: 1; visibility: hidden;" vector-effect="non-scaling-stroke"  x="-540" y="-540" rx="0" ry="0" width="1080" height="1080" />
</g>
<g transform="matrix(1 0 0 1 540 540)" id="4e856971-bc2f-4cb5-be11-9228543796ce"  >
</g>
<g transform="matrix(2.12 0 0 2.12 621.66 748.74)"  >
<path style="stroke: none; stroke-width: 1; stroke-dasharray: none; stroke-linecap: butt; stroke-dashoffset: 0; stroke-linejoin: miter; stroke-miterlimit: 4; fill: rgb(26,15,88); fill-rule: nonzero; opacity: 1;" vector-effect="non-scaling-stroke"  transform=" translate(-388.59, -378.67)" d="M 560.51 418.38 L 373.53 232.96 C 372.7175 234.292 372.0925 235.7178 371.2136 237.0147 C 352.0886 266.2057 319.45959999999997 283.7687 284.07259999999997 283.7687 C 258.4206 283.7687 233.78359999999998 274.4171 214.61559999999997 257.4567 C 207.68589999999998 288.9257 216.28359999999998 325.3827 240.49059999999997 366.1467 C 241.56479999999996 368.217 263.5646 408.4237 311.8966 423.4047 L 311.8966 504.0027 L 272.7716 504.0027 C 267.15049999999997 504.0027 262.58759999999995 508.55740000000003 262.58759999999995 514.1867 C 262.58759999999995 519.8156 267.14619999999996 524.3706999999999 272.7716 524.3706999999999 L 371.3886 524.3706999999999 C 377.0097 524.3706999999999 381.5726 519.8159999999999 381.5726 514.1867 C 381.5726 508.5578 377.014 504.00269999999995 371.3886 504.00269999999995 L 332.2636 504.00269999999995 L 332.2636 427.7176999999999 C 337.7831 428.44816999999995 343.4746 428.9676999999999 349.5406 428.9676999999999 C 367.25559999999996 428.9676999999999 386.09159999999997 425.50679999999994 405.33759999999995 418.5806999999999 C 426.20859999999993 411.04549999999995 447.79459999999995 409.82289999999995 467.44659999999993 414.8150999999999 L 551.9545999999999 436.6040999999999 C 552.7710099999999 436.8072199999999 553.5835 436.9087899999999 554.5015 436.9087899999999 L 554.6030599999999 436.9087899999999 C 560.00146 436.5025399999999 564.8880599999999 432.4282899999999 564.8880599999999 426.72478999999987 C 564.8841539999999 423.2677899999999 563.1536599999998 420.21308999999985 560.5052599999999 418.3809899999999 z" stroke-linecap="round" />
</g>
<g transform="matrix(2.12 0 0 2.12 138.83 343.23)"  >
<path style="stroke: none; stroke-width: 1; stroke-dasharray: none; stroke-linecap: butt; stroke-dashoffset: 0; stroke-linejoin: miter; stroke-miterlimit: 4; fill: rgb(26,15,88); fill-rule: nonzero; opacity: 1;" vector-effect="non-scaling-stroke"  transform=" translate(-160.38, -187)" d="M 181.17 159.23 L 140.23199999999997 182.644 C 136.71639999999996 184.6518 134.72809999999998 188.562 135.16559999999998 192.5854 C 135.60309999999998 196.6127 138.38039999999998 199.9916 142.2515 201.1948 L 185.6615 214.7688 C 181.5638 203.4328 179.3021 191.3278 179.3021 179.0028 C 179.306006 172.3192 179.93101 165.71380000000002 181.1693 159.2298 z" stroke-linecap="round" />
</g>
<g transform="matrix(2.12 0 0 2.12 400.51 263.93)"  >
<path style="stroke: none; stroke-width: 1; stroke-dasharray: none; stroke-linecap: butt; stroke-dashoffset: 0; stroke-linejoin: miter; stroke-miterlimit: 4; fill: rgb(26,15,88); fill-rule: nonzero; opacity: 1;" vector-effect="non-scaling-stroke"  transform=" translate(-284.07, -149.52)" d="M 227.77 241.92 C 243.247 255.768 263.204 263.404 284.075 263.404 C 312.481 263.404 338.852 249.252 354.329 225.631 C 363.5946 211.885 368.481 195.697 368.481 178.998 C 368.481 164.01 364.48879999999997 149.619 357.286 137.09199999999998 L 358.3016 137.09199999999998 C 363.9227 137.09199999999998 368.48560000000003 132.5373 368.48560000000003 126.90799999999999 C 368.48560000000003 121.27869999999999 363.927 116.72399999999999 358.3016 116.72399999999999 L 344.96160000000003 116.72399999999999 L 344.965506 91.94299999999998 C 344.965506 76.77099999999999 338.449906 62.51699999999998 326.73850600000003 51.72399999999998 C 315.234506 41.33699999999998 300.06250600000004 35.637999999999984 284.07850600000006 35.637999999999984 C 250.47650600000006 35.637999999999984 223.19150600000006 60.887999999999984 223.19150600000006 91.94299999999998 L 223.19150600000006 116.72799999999998 L 209.83250600000005 116.72799999999998 C 204.21140600000004 116.72799999999998 199.64850600000005 121.28269999999998 199.64850600000005 126.91199999999998 C 199.64850600000005 132.54089999999997 204.20710600000007 137.09599999999998 209.83250600000005 137.09599999999998 L 210.98870600000006 137.09599999999998 C 209.01210600000007 140.50619999999998 207.18010600000005 143.99829999999997 205.68010600000005 147.64299999999997 C 201.70740600000005 157.62349999999998 199.67230600000005 168.20899999999997 199.67230600000005 179.00199999999998 C 199.67230600000005 193.15399999999997 203.13320600000006 207.10399999999998 209.85630600000005 219.32199999999997 C 214.53600600000004 227.86889999999997 220.74730600000004 235.70899999999997 227.77030600000006 241.91999999999996 z M 257.094 171.057 C 255.25809999999998 172.8851 252.6135 174.0101 249.8635 174.0101 C 247.21509999999998 174.0101 244.57049999999998 172.8851 242.7346 171.057 C 240.801 169.1195 239.7815 166.475 239.7815 163.82649999999998 C 239.7815 161.17029999999997 240.801 158.52569999999997 242.7346 156.59599999999998 C 246.5041 152.82649999999998 253.3246 152.82649999999998 257.0936 156.59599999999998 C 259.0272 158.52569999999997 260.0467 161.17019999999997 260.0467 163.82649999999998 C 260.0467 166.4749 259.0272 169.1195 257.0936 171.057 z" stroke-linecap="round" />
</g>
<g transform="matrix(NaN NaN NaN NaN 0 0)"  >
<g style=""   >
</g>
</g>
<g transform="matrix(NaN NaN NaN NaN 0 0)"  >
<g style=""   >
</g>
</g>
<g transform="matrix(NaN NaN NaN NaN 0 0)"  >
<g style=""   >
</g>
</g>
<g transform="matrix(NaN NaN NaN NaN 0 0)"  >
<g style=""   >
</g>
</g>
</svg>