<svg version="1.1" id="Layer_1" xmlns="http://www.w3.org/2000/svg" xmlns:xlink="http://www.w3.org/1999/xlink" x="0px" y="0px"
	 width="100%" viewBox="0 0 428 143" enable-background="new 0 0 428 143" xml:space="preserve">
<path fill="#FEFEFF" opacity="1.000000" stroke="none" 
	d="
M275.000000,144.000000 
	C183.333344,144.000000 92.166687,144.000000 1.000025,144.000000 
	C1.000016,96.333351 1.000016,48.666698 1.000008,1.000037 
	C143.666641,1.000025 286.333282,1.000025 428.999939,1.000012 
	C428.999939,48.666626 428.999939,96.333252 428.999969,143.999939 
	C377.833344,144.000000 326.666656,144.000000 275.000000,144.000000 
M160.854614,87.500023 
	C160.854614,64.092033 160.854614,40.684036 160.854614,17.346638 
	C113.862175,17.346638 67.512703,17.346638 21.410437,17.346638 
	C21.410437,52.386654 21.410437,87.076347 21.410437,121.625092 
	C68.045158,121.625092 114.268295,121.625092 160.854599,121.625092 
	C160.854599,110.407791 160.854599,99.453911 160.854614,87.500023 
M211.389374,93.120361 
	C213.784225,96.312012 216.143082,99.531487 218.583038,102.688263 
	C221.653229,106.660439 225.501907,107.819458 228.338943,105.398010 
	C232.087067,102.198944 230.451157,98.958977 228.020126,95.801979 
	C222.986023,89.264572 217.997223,82.692291 212.917038,76.039070 
	C217.245132,72.030624 221.288376,68.342514 225.267380,64.586349 
	C230.068359,60.054253 230.881088,56.929493 228.121201,54.043858 
	C225.471985,51.273975 222.118149,52.113655 217.500137,56.619869 
	C210.671768,63.282906 203.812790,69.914581 196.176163,77.327095 
	C196.176163,64.318718 196.185318,52.557873 196.172302,40.797054 
	C196.165756,34.873108 194.340454,32.242390 190.248657,32.168060 
	C186.221588,32.094910 184.007828,35.007401 184.001755,40.568558 
	C183.980621,59.872238 183.977219,79.175980 184.004425,98.479645 
	C184.011841,103.745430 186.120605,106.486099 190.035034,106.562355 
	C194.060043,106.640762 196.770142,103.930923 196.016830,98.723167 
	C194.927155,91.190201 199.465179,87.719643 204.480026,83.947891 
	C206.763763,86.975746 208.864532,89.761047 211.389374,93.120361 
M316.697906,102.589195 
	C316.469147,95.121109 316.976929,87.986595 325.357910,84.234444 
	C326.334839,85.484230 327.458862,86.882835 328.540741,88.313354 
	C332.357056,93.359535 336.141541,98.429878 339.972504,103.464867 
	C342.448975,106.719688 345.728058,107.840996 349.090057,105.359001 
	C352.464142,102.868065 351.621124,99.595741 349.347839,96.594292 
	C348.242126,95.134392 347.137299,93.673851 346.029175,92.215797 
	C341.932251,86.825142 337.834137,81.435410 333.746185,76.058121 
	C338.832916,71.274155 343.607269,66.884972 348.259308,62.369743 
	C350.912506,59.794556 351.346710,56.704758 348.696381,53.979660 
	C346.131500,51.342468 343.175934,52.173534 340.638580,54.295547 
	C338.855408,55.786831 337.311127,57.561825 335.640656,59.190136 
	C329.659302,65.020538 323.669647,70.842400 317.005798,77.326546 
	C317.005798,63.974300 317.030334,51.822090 316.993744,39.670059 
	C316.979095,34.800293 314.813660,32.065948 310.930145,32.208229 
	C306.568695,32.368019 304.845581,35.155167 304.842163,39.196320 
	C304.825134,59.361668 304.711548,79.529144 305.034698,99.689430 
	C305.070068,101.896103 307.291962,105.273819 309.217865,105.900208 
	C311.092255,106.509857 313.889404,104.282349 316.697906,102.589195 
M397.200897,53.028744 
	C385.851593,50.319092 375.629913,52.259350 367.548767,61.076603 
	C360.347626,68.933716 358.522705,78.306526 361.748779,88.429771 
	C365.847229,101.290550 377.677155,108.380241 392.274597,107.051865 
	C404.671417,105.923744 415.017883,95.876854 416.825714,83.211617 
	C418.682190,70.205536 411.377289,58.600452 397.200897,53.028744 
M281.335938,106.177727 
	C287.339386,106.714516 289.720032,104.815727 289.810181,98.833672 
	C289.958252,89.011978 289.857300,79.186440 289.850037,69.362534 
	C289.847443,65.866585 290.008881,62.355293 289.737762,58.878895 
	C289.448273,55.166378 287.592773,52.490810 283.469055,52.511936 
	C279.341034,52.533085 277.662384,55.231258 277.248413,58.947762 
	C277.101654,60.265430 277.152435,61.607533 277.150757,62.938526 
	C277.141815,70.098312 277.282288,77.261520 277.105804,84.416992 
	C276.918823,91.998978 271.345093,96.743797 263.906494,95.962921 
	C257.827606,95.324783 254.229889,91.029007 254.064270,83.654510 
	C253.884872,75.666138 253.967209,67.670456 254.028961,59.678692 
	C254.060776,55.561897 252.389389,52.709152 248.133575,52.534996 
	C243.829895,52.358879 241.861603,55.122829 241.862198,59.235260 
	C241.863678,69.389954 241.656235,79.557060 242.084198,89.695908 
	C242.534454,100.362923 249.984344,107.014313 260.648834,107.188148 
	C267.352325,107.297409 272.410034,104.221527 276.181824,99.621628 
	C277.697693,101.774391 279.167664,103.861969 281.335938,106.177727 
z"/>
<path fill="#272B74" opacity="1.000000" stroke="none" 
	d="
M160.854614,88.000031 
	C160.854599,99.453911 160.854599,110.407791 160.854599,121.625092 
	C114.268295,121.625092 68.045158,121.625092 21.410437,121.625092 
	C21.410437,87.076347 21.410437,52.386654 21.410437,17.346638 
	C67.512703,17.346638 113.862175,17.346638 160.854614,17.346638 
	C160.854614,40.684036 160.854614,64.092033 160.854614,88.000031 
M87.558426,51.132828 
	C83.735985,52.470444 79.913544,53.808060 75.586555,55.322235 
	C83.278122,62.213093 90.408974,68.696602 97.694550,75.001312 
	C98.547806,75.739685 100.454720,76.012169 101.524834,75.598824 
	C104.110321,74.600151 106.489723,73.067955 109.777946,71.309196 
	C104.542091,69.963669 100.152206,68.835548 95.762321,67.707420 
	C101.252083,67.006081 106.987328,68.242050 111.776573,66.643623 
	C116.188858,65.171005 119.584663,60.652794 123.428223,57.476154 
	C123.115814,57.141357 122.803406,56.806564 122.491005,56.471771 
	C114.474052,57.142277 106.457108,57.812778 98.440155,58.483284 
	C98.405251,58.070057 98.370346,57.656834 98.335442,57.243607 
	C106.975922,55.146381 115.633293,53.114632 124.242210,50.894947 
	C125.901505,50.467125 127.924995,49.691441 128.825867,48.406807 
	C131.727509,44.269070 134.182983,39.818474 137.399918,34.517162 
	C120.336632,40.233162 104.333153,45.594139 87.558426,51.132828 
M66.500931,48.743420 
	C59.586884,45.637707 53.380692,50.398479 46.326958,50.407715 
	C56.968658,51.399189 57.187263,58.686440 57.048313,66.348251 
	C57.017242,68.061409 57.230190,70.181786 58.200897,71.447227 
	C66.721611,82.555099 84.309586,84.661514 95.403915,77.674950 
	C92.524391,75.068481 89.584885,72.652740 86.930122,69.956627 
	C80.218834,63.140804 73.635551,56.198933 66.500931,48.743420 
M104.668045,91.954147 
	C107.787125,91.151108 110.906197,90.348061 115.372231,89.198235 
	C110.827705,86.956131 107.174706,85.716667 104.189453,83.555038 
	C99.149826,79.905830 94.478905,81.579109 89.717369,83.652374 
	C88.883408,84.015495 87.887917,85.202812 87.863220,86.036049 
	C87.698776,91.584236 87.777954,97.139656 87.777954,104.114357 
	C92.448494,98.517441 99.088455,95.970215 96.070366,88.011322 
	C100.458427,92.832718 100.458427,92.832718 104.668045,91.954147 
z"/>
<path fill="#192172" opacity="1.000000" stroke="none" 
	d="
M211.177338,92.833351 
	C208.864532,89.761047 206.763763,86.975746 204.480026,83.947891 
	C199.465179,87.719643 194.927155,91.190201 196.016830,98.723167 
	C196.770142,103.930923 194.060043,106.640762 190.035034,106.562355 
	C186.120605,106.486099 184.011841,103.745430 184.004425,98.479645 
	C183.977219,79.175980 183.980621,59.872238 184.001755,40.568558 
	C184.007828,35.007401 186.221588,32.094910 190.248657,32.168060 
	C194.340454,32.242390 196.165756,34.873108 196.172302,40.797054 
	C196.185318,52.557873 196.176163,64.318718 196.176163,77.327095 
	C203.812790,69.914581 210.671768,63.282906 217.500137,56.619869 
	C222.118149,52.113655 225.471985,51.273975 228.121201,54.043858 
	C230.881088,56.929493 230.068359,60.054253 225.267380,64.586349 
	C221.288376,68.342514 217.245132,72.030624 212.917038,76.039070 
	C217.997223,82.692291 222.986023,89.264572 228.020126,95.801979 
	C230.451157,98.958977 232.087067,102.198944 228.338943,105.398010 
	C225.501907,107.819458 221.653229,106.660439 218.583038,102.688263 
	C216.143082,99.531487 213.784225,96.312012 211.177338,92.833351 
z"/>
<path fill="#182072" opacity="1.000000" stroke="none" 
	d="
M316.489655,102.944885 
	C313.889404,104.282349 311.092255,106.509857 309.217865,105.900208 
	C307.291962,105.273819 305.070068,101.896103 305.034698,99.689430 
	C304.711548,79.529144 304.825134,59.361668 304.842163,39.196320 
	C304.845581,35.155167 306.568695,32.368019 310.930145,32.208229 
	C314.813660,32.065948 316.979095,34.800293 316.993744,39.670059 
	C317.030334,51.822090 317.005798,63.974300 317.005798,77.326546 
	C323.669647,70.842400 329.659302,65.020538 335.640656,59.190136 
	C337.311127,57.561825 338.855408,55.786831 340.638580,54.295547 
	C343.175934,52.173534 346.131500,51.342468 348.696381,53.979660 
	C351.346710,56.704758 350.912506,59.794556 348.259308,62.369743 
	C343.607269,66.884972 338.832916,71.274155 333.746185,76.058121 
	C337.834137,81.435410 341.932251,86.825142 346.029175,92.215797 
	C347.137299,93.673851 348.242126,95.134392 349.347839,96.594292 
	C351.621124,99.595741 352.464142,102.868065 349.090057,105.359001 
	C345.728058,107.840996 342.448975,106.719688 339.972504,103.464867 
	C336.141541,98.429878 332.357056,93.359535 328.540741,88.313354 
	C327.458862,86.882835 326.334839,85.484230 325.357910,84.234444 
	C316.976929,87.986595 316.469147,95.121109 316.489655,102.944885 
z"/>
<path fill="#1A2273" opacity="1.000000" stroke="none" 
	d="
M397.588867,53.147835 
	C411.377289,58.600452 418.682190,70.205536 416.825714,83.211617 
	C415.017883,95.876854 404.671417,105.923744 392.274597,107.051865 
	C377.677155,108.380241 365.847229,101.290550 361.748779,88.429771 
	C358.522705,78.306526 360.347626,68.933716 367.548767,61.076603 
	C375.629913,52.259350 385.851593,50.319092 397.588867,53.147835 
M398.016968,93.750229 
	C404.498230,88.519463 406.126709,81.713821 403.844574,74.031570 
	C402.057190,68.014732 397.882904,64.068748 391.552887,62.959812 
	C384.087219,61.651936 377.563690,64.876930 374.394653,71.173958 
	C371.051788,77.816429 372.445068,87.045204 377.548676,92.064865 
	C382.733368,97.164276 389.997467,97.926613 398.016968,93.750229 
z"/>
<path fill="#1A2273" opacity="1.000000" stroke="none" 
	d="
M280.986786,106.063637 
	C279.167664,103.861969 277.697693,101.774391 276.181824,99.621628 
	C272.410034,104.221527 267.352325,107.297409 260.648834,107.188148 
	C249.984344,107.014313 242.534454,100.362923 242.084198,89.695908 
	C241.656235,79.557060 241.863678,69.389954 241.862198,59.235260 
	C241.861603,55.122829 243.829895,52.358879 248.133575,52.534996 
	C252.389389,52.709152 254.060776,55.561897 254.028961,59.678692 
	C253.967209,67.670456 253.884872,75.666138 254.064270,83.654510 
	C254.229889,91.029007 257.827606,95.324783 263.906494,95.962921 
	C271.345093,96.743797 276.918823,91.998978 277.105804,84.416992 
	C277.282288,77.261520 277.141815,70.098312 277.150757,62.938526 
	C277.152435,61.607533 277.101654,60.265430 277.248413,58.947762 
	C277.662384,55.231258 279.341034,52.533085 283.469055,52.511936 
	C287.592773,52.490810 289.448273,55.166378 289.737762,58.878895 
	C290.008881,62.355293 289.847443,65.866585 289.850037,69.362534 
	C289.857300,79.186440 289.958252,89.011978 289.810181,98.833672 
	C289.720032,104.815727 287.339386,106.714516 280.986786,106.063637 
z"/>
<path fill="#F9F9FB" opacity="1.000000" stroke="none" 
	d="
M87.944046,51.043972 
	C104.333153,45.594139 120.336632,40.233162 137.399918,34.517162 
	C134.182983,39.818474 131.727509,44.269070 128.825867,48.406807 
	C127.924995,49.691441 125.901505,50.467125 124.242210,50.894947 
	C115.633293,53.114632 106.975922,55.146381 98.335442,57.243607 
	C98.370346,57.656834 98.405251,58.070057 98.440155,58.483284 
	C106.457108,57.812778 114.474052,57.142277 122.491005,56.471771 
	C122.803406,56.806564 123.115814,57.141357 123.428223,57.476154 
	C119.584663,60.652794 116.188858,65.171005 111.776573,66.643623 
	C106.987328,68.242050 101.252083,67.006081 95.762321,67.707420 
	C100.152206,68.835548 104.542091,69.963669 109.777946,71.309196 
	C106.489723,73.067955 104.110321,74.600151 101.524834,75.598824 
	C100.454720,76.012169 98.547806,75.739685 97.694550,75.001312 
	C90.408974,68.696602 83.278122,62.213093 75.586555,55.322235 
	C79.913544,53.808060 83.735985,52.470444 87.944046,51.043972 
z"/>
<path fill="#FBFBFC" opacity="1.000000" stroke="none" 
	d="
M66.750961,49.025490 
	C73.635551,56.198933 80.218834,63.140804 86.930122,69.956627 
	C89.584885,72.652740 92.524391,75.068481 95.403915,77.674950 
	C84.309586,84.661514 66.721611,82.555099 58.200897,71.447227 
	C57.230190,70.181786 57.017242,68.061409 57.048313,66.348251 
	C57.187263,58.686440 56.968658,51.399189 46.326958,50.407715 
	C53.380692,50.398479 59.586884,45.637707 66.750961,49.025490 
z"/>
<path fill="#F8F9FB" opacity="1.000000" stroke="none" 
	d="
M104.278931,92.016724 
	C100.458427,92.832718 100.458427,92.832718 96.070366,88.011322 
	C99.088455,95.970215 92.448494,98.517441 87.777954,104.114357 
	C87.777954,97.139656 87.698776,91.584236 87.863220,86.036049 
	C87.887917,85.202812 88.883408,84.015495 89.717369,83.652374 
	C94.478905,81.579109 99.149826,79.905830 104.189453,83.555038 
	C107.174706,85.716667 110.827705,86.956131 115.372231,89.198235 
	C110.906197,90.348061 107.787125,91.151108 104.278931,92.016724 
z"/>
<path fill="#FCFCFD" opacity="1.000000" stroke="none" 
	d="
M397.682281,93.946457 
	C389.997467,97.926613 382.733368,97.164276 377.548676,92.064865 
	C372.445068,87.045204 371.051788,77.816429 374.394653,71.173958 
	C377.563690,64.876930 384.087219,61.651936 391.552887,62.959812 
	C397.882904,64.068748 402.057190,68.014732 403.844574,74.031570 
	C406.126709,81.713821 404.498230,88.519463 397.682281,93.946457 
z"/>
</svg>